<svg xmlns="http://www.w3.org/2000/svg" width="1600" height="1050" viewBox="0 0 1600 1050">
<rect width="1600" height="1050" fill="#F8F7F4"/>
<text x="90" y="90" fill="#111111" font-family="Georgia, serif" font-size="50" font-weight="700">Discovery Spark T</text><text x="90" y="130" fill="#666666" font-family="Arial, sans-serif" font-size="23">A firm editorial T with one small moment of surprise. More human, more expressive.</text>
<text x="90" y="210" fill="#666666" font-family="Arial" font-size="19" font-weight="700" letter-spacing="2">APP ICON — LARGE TEST</text>
<rect x="90" y="245" width="540" height="540" rx="130" fill="#F8F7F4" stroke="#111111" stroke-width="14"/>
<rect x="184" y="370" width="350" height="76" rx="38" fill="#111111"/><rect x="322" y="408" width="76" height="255" rx="38" fill="#111111"/>
<path d="M485 317 L494 349 L526 358 L494 367 L485 399 L476 367 L444 358 L476 349 Z" fill="#B63A3A"/>
<text x="360" y="850" text-anchor="middle" fill="#111111" font-family="Arial" font-size="24" font-weight="700">The red spark is discovery—not decoration</text>
<text x="810" y="210" fill="#666666" font-family="Arial" font-size="19" font-weight="700" letter-spacing="2">STARTUP SCREEN</text>
<rect x="810" y="245" width="440" height="630" rx="34" fill="#F8F7F4" stroke="#E8E5E1" stroke-width="3"/>
<rect x="930" y="445" width="200" height="45" rx="22" fill="#111111"/><rect x="1007" y="468" width="46" height="170" rx="23" fill="#111111"/><path d="M1115 410 L1122 434 L1146 441 L1122 448 L1115 472 L1108 448 L1084 441 L1108 434 Z" fill="#B63A3A"/>
<text x="1030" y="735" text-anchor="middle" fill="#111111" font-family="Arial" font-size="33" font-weight="800" letter-spacing="9">TANGENT</text>
<text x="1330" y="210" fill="#666666" font-family="Arial" font-size="19" font-weight="700" letter-spacing="2">LOADER</text>
<rect x="1330" y="245" width="190" height="190" rx="32" fill="#FFFFFF" stroke="#E8E5E1" stroke-width="3"/>
<rect x="1364" y="312" width="122" height="25" rx="12" fill="#111111"/><rect x="1412" y="325" width="25" height="80" rx="12" fill="#111111"/><path d="M1472 292 L1477 309 L1494 314 L1477 319 L1472 336 L1467 319 L1450 314 L1467 309 Z" fill="#B63A3A"/>
<rect x="810" y="920" width="440" height="55" rx="27" fill="#121212"/><text x="835" y="957" fill="#F5F5F5" font-family="Arial" font-size="21">Motion idea: spark expands once, then settles.</text>
</svg>